<svg width="528" height="567" viewBox="0 0 528 567" fill="none" xmlns="http://www.w3.org/2000/svg">
<g id="Group 1">
<path id="mantis-path" opacity="0.01" d="M173.846 544.5L214.846 566L231.346 556.5L208.346 544.5L181.846 528.5L154.846 509.5L130.346 504L109.846 499.5H79.3456H27.8456H0.845642L6.34564 509.5H83.3456L124.846 515.5L147.846 523.5L173.846 544.5Z" stroke="white"/>
<path id="monkey-path" opacity="0.01" d="M234.846 508.5L229.346 533L258.346 545.5L263.846 517.5L284.346 494L302.846 455.5V419L292.846 402.5L269.846 387L244.846 374.5L216.846 364.5L196.346 355L182.846 341.5L164.346 355L196.346 374.5L224.346 387L258.346 402.5L274.846 419V455.5L258.346 488.5L234.846 508.5Z" stroke="white"/>
<path id="viper-path" opacity="0.01" d="M348.846 454.5L306.346 462.5L312.346 483.5L348.846 473L375.846 462.5H422.346L461.846 454.5L456.346 443L422.346 448H390.346L348.846 454.5Z" stroke="white"/>
<path id="crane-path" opacity="0.01" d="M337.346 433.5L369.346 443L344.346 449.5L307.346 443L326.846 424.5L349.846 414L381.846 402.5L415.846 390L447.346 378L468.846 363V338.5V301L479.346 283.5L503.346 267L517.846 237H526.846V267L497.846 283.5L479.346 301L488.346 343.5L479.346 369.5L447.346 390L415.846 402.5L369.346 414L337.346 433.5Z" stroke="white"/>
<path id="tigress-path" opacity="0.01" d="M226.346 334L214.846 363H233.846L240.846 349.5V316.5V287.5L233.846 256.5L226.346 241H201.346L169.346 221L139.346 200.5L103.846 186L65.8456 194L38.8456 205.5L19.8456 221L30.3456 230.5L65.8456 205.5H92.3456H127.846L145.346 221L169.346 241L201.346 250.5L214.846 256.5V282.5L226.346 303V334Z" stroke="white"/>
<path id="shifu-path" opacity="0.01" d="M257.346 221L231.346 235.5V252.5L264.846 239L287.346 221L295.846 205.5L279.346 181L257.346 167.5L237.846 158V134L243.846 115.5L268.846 85.5L279.346 75V56.5L268.846 31.5L243.846 26.5V0.5H231.346V26.5L257.346 41L268.846 56.5L257.346 85.5L231.346 108L217.846 134L211.846 153L231.346 181L257.346 193L273.846 200.5L257.346 221Z" fill="#861A1A" stroke="white"/>
</g>
</svg>
